Coordinates
version=1
nRows=6
nColumns=36
inDegrees=yes

Units are S.I. units (second, meters, Newtons, ...)
If the header above contains a line with 'inDegrees', this indicates whether rotational values are in degrees (yes) or radians (no).

endheader
time	pelvis_tilt	pelvis_list	pelvis_rotation	pelvis_tx	pelvis_ty	pelvis_tz	hip_flexion_r	hip_adduction_r	hip_rotation_r	knee_angle_r	knee_angle_r_beta	ankle_angle_r	subtalar_angle_r	mtp_angle_r	hip_flexion_l	hip_adduction_l	hip_rotation_l	knee_angle_l	knee_angle_l_beta	ankle_angle_l	subtalar_angle_l	mtp_angle_l	lumbar_extension	lumbar_bending	lumbar_rotation	arm_flex_r	arm_add_r	arm_rot_r	elbow_flex_r	pro_sup_r	arm_flex_l	arm_add_l	arm_rot_l	elbow_flex_l	pro_sup_l
      1.37000000	     -5.50730791	      5.54543480	      0.11096318	     -0.48731479	      1.13864629	     -0.55370575	     29.14775924	     -8.52176408	     -6.22212240	      6.67208813	      0.11644991	    -40.64729808	     -2.35858438	     -7.25982306	     31.15158869	     -1.98791785	     -7.56187496	     16.16444115	      0.28212272	    -29.43423195	     -6.88746739	     -7.25982306	    -18.23641284	     -2.75910938	     13.76667473	     84.48757538	   -129.52788313	     85.65619479	    128.21543999	     94.09271826	     71.41164319	    -66.95436829	     56.57175749	     66.21857448	    102.45902628
      1.38000000	     -5.04471893	      5.47480679	     -0.11466260	     -0.47395689	      1.11720649	     -0.55386019	     29.04777664	     -8.67119668	     -5.86679809	      7.74403731	      0.13515895	    -41.29873542	     -3.35511891	     -7.38166417	     31.19829848	     -2.13705392	     -7.16195421	     16.96820841	      0.29615110	    -29.94428622	     -6.54113571	     -7.38166417	    -19.04375242	     -2.28747240	     10.56008481	     84.29756390	   -129.06097507	     86.25501176	    128.99160842	     88.43778321	     48.17187918	    -76.51599589	     33.57716232	     73.02230166	    104.45167813
      1.39000000	     -4.57281794	      5.36996717	     -0.36846121	     -0.46072772	      1.09485928	     -0.55389349	     29.05634247	     -8.71549784	     -4.81517882	      9.23148233	      0.16111976	    -42.26751698	     -4.93580183	     -7.51317168	     31.36751966	     -2.34374404	     -6.79920180	     18.10435259	      0.31598056	    -30.46008025	     -6.09041203	     -7.51317168	    -20.02805220	     -2.21958474	      5.25816867	     85.67028008	   -124.99744991	     88.39942647	    128.50889715	     89.60033869	    -29.22426913	    -78.51285022	    -43.11864248	     80.98104637	    102.77126424
      1.40000000	     -4.05536396	      5.19931494	     -0.61522261	     -0.44775703	      1.07164813	     -0.55403842	     29.19266421	     -8.66787935	     -3.34712842	     11.24375174	      0.19624049	    -42.81522989	     -6.11403521	     -7.49733629	     31.63506167	     -2.58723010	     -6.40274718	     19.56608839	      0.34149266	    -30.79510399	     -5.45813355	     -7.49733629	    -21.10479825	     -3.00243389	     -5.04507841	     91.48827089	   -111.82698239	     95.12659163	    124.20578461	     92.33433688	    -71.71267806	    -58.88954460	    -84.67525003	     89.78332391	    101.36146493
      1.41000000	     -3.54014747	      5.10685194	     -0.87103249	     -0.43502533	      1.04741929	     -0.55388178	     29.54495587	     -8.57971594	     -1.19652806	     13.57272020	      0.23688866	    -43.31498420	     -6.32683047	     -7.49746915	     32.05730961	     -2.79860703	     -6.26888807	     21.39766597	      0.37345972	    -30.64395699	     -4.77749026	     -7.49746915	    -21.75755648	     -2.84583677	     -4.07130081	     94.58814409	   -117.74639160	     99.95040122	    124.96139232	     92.34595422	    -71.12122545	    -54.67233547	    -82.75006420	     90.08630320	    100.91426725
      1.42000000	     -3.02169808	      5.04443435	     -1.15523119	     -0.42233338	      1.02216695	     -0.55351237	     29.92821672	     -8.37818535	      1.14034743	     15.59293166	      0.27214800	    -44.03230492	     -5.29778917	     -7.49758334	     32.58069054	     -3.05283600	     -6.38105955	     23.45084936	      0.40929453	    -30.09119996	     -3.59728589	     -7.49758334	    -22.33900286	     -2.72418461	     -3.00454029	     97.37373118	   -123.56917157	    104.24021697	    125.00613440	     92.29866131	    -70.32428962	    -50.86202858	    -80.21620561	     89.87493247	    100.44167976
